solid OpenSCAD_Model
  facet normal -0 0 1
    outer loop
      vertex 21.4268 -3.34278 -5
      vertex 22 -4.18925 -5
      vertex 22 -3.11585 -5
    endloop
  endfacet
  facet normal 0 0 1
    outer loop
      vertex 22 -4.18925 -5
      vertex 21.4268 -3.34278 -5
      vertex 21.8526 -4.24761 -5
    endloop
  endfacet
  facet normal 0 0 1
    outer loop
      vertex 21.4268 -3.34278 -5
      vertex 17.8084 -6.47095 -5
      vertex 21.8526 -4.24761 -5
    endloop
  endfacet
  facet normal -0 0 1
    outer loop
      vertex 17.2725 -5.62662 -5
      vertex 17.8084 -6.47095 -5
      vertex 21.4268 -3.34278 -5
    endloop
  endfacet
  facet normal 0 0 1
    outer loop
      vertex 17.2725 -5.62662 -5
      vertex 14.0747 -9.18364 -5
      vertex 17.8084 -6.47095 -5
    endloop
  endfacet
  facet normal -0 0 1
    outer loop
      vertex 13.4372 -8.41313 -5
      vertex 14.0747 -9.18364 -5
      vertex 17.2725 -5.62662 -5
    endloop
  endfacet
  facet normal 0 0 1
    outer loop
      vertex 13.4372 -8.41313 -5
      vertex 10.7104 -12.3429 -5
      vertex 14.0747 -9.18364 -5
    endloop
  endfacet
  facet normal -0 0 1
    outer loop
      vertex 9.98143 -11.6583 -5
      vertex 10.7104 -12.3429 -5
      vertex 13.4372 -8.41313 -5
    endloop
  endfacet
  facet normal 0 0 1
    outer loop
      vertex 9.98143 -11.6583 -5
      vertex 7.76863 -15.8989 -5
      vertex 10.7104 -12.3429 -5
    endloop
  endfacet
  facet normal -0 0 1
    outer loop
      vertex 6.95961 -15.3111 -5
      vertex 7.76863 -15.8989 -5
      vertex 9.98143 -11.6583 -5
    endloop
  endfacet
  facet normal 0 0 1
    outer loop
      vertex 6.95961 -15.3111 -5
      vertex 5.29573 -19.7956 -5
      vertex 7.76863 -15.8989 -5
    endloop
  endfacet
  facet normal -0 0 1
    outer loop
      vertex 4.41942 -19.3138 -5
      vertex 5.29573 -19.7956 -5
      vertex 6.95961 -15.3111 -5
    endloop
  endfacet
  facet normal 0 0 1
    outer loop
      vertex 4.41942 -19.3138 -5
      vertex 4.26304 -21.9901 -5
      vertex 5.29573 -19.7956 -5
    endloop
  endfacet
  facet normal 0 -0 1
    outer loop
      vertex 4.26304 -21.9901 -5
      vertex 4.41942 -19.3138 -5
      vertex 3.16004 -21.9901 -5
    endloop
  endfacet
  facet normal 0 0 1
    outer loop
      vertex 21.4268 3.34278 -5
      vertex 22 -3.11585 -5
      vertex 22 3.11585 -5
    endloop
  endfacet
  facet normal 0 0 1
    outer loop
      vertex 21.4268 3.34278 -5
      vertex 21.4268 -3.34278 -5
      vertex 22 -3.11585 -5
    endloop
  endfacet
  facet normal 0 0 1
    outer loop
      vertex 17.2725 5.62662 -5
      vertex 21.4268 -3.34278 -5
      vertex 21.4268 3.34278 -5
    endloop
  endfacet
  facet normal 0 0 1
    outer loop
      vertex 17.2725 5.62662 -5
      vertex 17.2725 -5.62662 -5
      vertex 21.4268 -3.34278 -5
    endloop
  endfacet
  facet normal 0 0 1
    outer loop
      vertex 3.22437 0.407332 -5
      vertex 17.2725 5.62662 -5
      vertex 13.4372 8.41313 -5
    endloop
  endfacet
  facet normal 0 0 1
    outer loop
      vertex 17.2725 5.62662 -5
      vertex 3.25 0 -5
      vertex 17.2725 -5.62662 -5
    endloop
  endfacet
  facet normal 0 0 1
    outer loop
      vertex 2.6293 1.9103 -5
      vertex 13.4372 8.41313 -5
      vertex 9.98143 11.6583 -5
    endloop
  endfacet
  facet normal 0 0 1
    outer loop
      vertex 17.2725 5.62662 -5
      vertex 3.22437 0.407332 -5
      vertex 3.25 0 -5
    endloop
  endfacet
  facet normal 0 0 1
    outer loop
      vertex 1.0043 3.09093 -5
      vertex 9.98143 11.6583 -5
      vertex 6.95961 15.3111 -5
    endloop
  endfacet
  facet normal -0 0 1
    outer loop
      vertex 3.22437 -0.407332 -5
      vertex 17.2725 -5.62662 -5
      vertex 3.25 0 -5
    endloop
  endfacet
  facet normal 0 0 1
    outer loop
      vertex -6.95961 15.3111 -5
      vertex 6.95961 15.3111 -5
      vertex 4.41942 19.3138 -5
    endloop
  endfacet
  facet normal 0 0 1
    outer loop
      vertex 17.2725 -5.62662 -5
      vertex 3.22437 -0.407332 -5
      vertex 13.4372 -8.41313 -5
    endloop
  endfacet
  facet normal -0 0 1
    outer loop
      vertex 3.02177 -1.1964 -5
      vertex 13.4372 -8.41313 -5
      vertex 3.14789 -0.808242 -5
    endloop
  endfacet
  facet normal -0 0 1
    outer loop
      vertex 3.14789 -0.808242 -5
      vertex 13.4372 -8.41313 -5
      vertex 3.22437 -0.407332 -5
    endloop
  endfacet
  facet normal 0 0 1
    outer loop
      vertex -4.41942 19.3138 -5
      vertex 4.41942 19.3138 -5
      vertex 3.16004 21.9901 -5
    endloop
  endfacet
  facet normal 0 0 1
    outer loop
      vertex 13.4372 8.41313 -5
      vertex 3.14789 0.808242 -5
      vertex 3.22437 0.407332 -5
    endloop
  endfacet
  facet normal 0 0 1
    outer loop
      vertex 13.4372 8.41313 -5
      vertex 3.02177 1.1964 -5
      vertex 3.14789 0.808242 -5
    endloop
  endfacet
  facet normal 0 0 1
    outer loop
      vertex 13.4372 8.41313 -5
      vertex 2.848 1.5657 -5
      vertex 3.02177 1.1964 -5
    endloop
  endfacet
  facet normal 0 0 1
    outer loop
      vertex 13.4372 8.41313 -5
      vertex 2.6293 1.9103 -5
      vertex 2.848 1.5657 -5
    endloop
  endfacet
  facet normal 0 0 1
    outer loop
      vertex 9.98143 11.6583 -5
      vertex 2.36915 2.22478 -5
      vertex 2.6293 1.9103 -5
    endloop
  endfacet
  facet normal 0 0 1
    outer loop
      vertex 9.98143 11.6583 -5
      vertex 2.07163 2.50417 -5
      vertex 2.36915 2.22478 -5
    endloop
  endfacet
  facet normal 0 0 1
    outer loop
      vertex 9.98143 11.6583 -5
      vertex 1.74144 2.74407 -5
      vertex 2.07163 2.50417 -5
    endloop
  endfacet
  facet normal 0 0 1
    outer loop
      vertex 9.98143 11.6583 -5
      vertex 1.38378 2.94069 -5
      vertex 1.74144 2.74407 -5
    endloop
  endfacet
  facet normal 0 0 1
    outer loop
      vertex 9.98143 11.6583 -5
      vertex 1.0043 3.09093 -5
      vertex 1.38378 2.94069 -5
    endloop
  endfacet
  facet normal 0 0 1
    outer loop
      vertex 6.95961 15.3111 -5
      vertex 0.608989 3.19243 -5
      vertex 1.0043 3.09093 -5
    endloop
  endfacet
  facet normal 0 0 1
    outer loop
      vertex -6.95961 15.3111 -5
      vertex 4.41942 19.3138 -5
      vertex -4.41942 19.3138 -5
    endloop
  endfacet
  facet normal 0 0 1
    outer loop
      vertex 6.95961 15.3111 -5
      vertex -6.95961 15.3111 -5
      vertex 0.204069 3.24359 -5
    endloop
  endfacet
  facet normal 0 0 1
    outer loop
      vertex 6.95961 15.3111 -5
      vertex 0.204069 3.24359 -5
      vertex 0.608989 3.19243 -5
    endloop
  endfacet
  facet normal 0 0 1
    outer loop
      vertex 0.204069 3.24359 -5
      vertex -6.95961 15.3111 -5
      vertex -0.204069 3.24359 -5
    endloop
  endfacet
  facet normal 0 0 1
    outer loop
      vertex -0.608989 3.19243 -5
      vertex -6.95961 15.3111 -5
      vertex -1.0043 3.09093 -5
    endloop
  endfacet
  facet normal -0 0 1
    outer loop
      vertex -9.98143 11.6583 -5
      vertex -1.0043 3.09093 -5
      vertex -6.95961 15.3111 -5
    endloop
  endfacet
  facet normal 0 0 1
    outer loop
      vertex -1.0043 3.09093 -5
      vertex -9.98143 11.6583 -5
      vertex -1.38378 2.94069 -5
    endloop
  endfacet
  facet normal 0 0 1
    outer loop
      vertex -1.38378 2.94069 -5
      vertex -9.98143 11.6583 -5
      vertex -1.74144 2.74407 -5
    endloop
  endfacet
  facet normal 0 0 1
    outer loop
      vertex -1.74144 2.74407 -5
      vertex -9.98143 11.6583 -5
      vertex -2.07163 2.50417 -5
    endloop
  endfacet
  facet normal 0 0 1
    outer loop
      vertex -2.07163 2.50417 -5
      vertex -9.98143 11.6583 -5
      vertex -2.36915 2.22478 -5
    endloop
  endfacet
  facet normal 0 0 1
    outer loop
      vertex -2.36915 2.22478 -5
      vertex -9.98143 11.6583 -5
      vertex -2.6293 1.9103 -5
    endloop
  endfacet
  facet normal -0 0 1
    outer loop
      vertex -13.4372 8.41313 -5
      vertex -2.6293 1.9103 -5
      vertex -9.98143 11.6583 -5
    endloop
  endfacet
  facet normal 0 0 1
    outer loop
      vertex -4.41942 19.3138 -5
      vertex 3.16004 21.9901 -5
      vertex -3.16004 21.9901 -5
    endloop
  endfacet
  facet normal 0 0 1
    outer loop
      vertex -0.204069 3.24359 -5
      vertex -6.95961 15.3111 -5
      vertex -0.608989 3.19243 -5
    endloop
  endfacet
  facet normal 0 0 1
    outer loop
      vertex -2.6293 1.9103 -5
      vertex -13.4372 8.41313 -5
      vertex -2.848 1.5657 -5
    endloop
  endfacet
  facet normal 0 0 1
    outer loop
      vertex -2.848 1.5657 -5
      vertex -13.4372 8.41313 -5
      vertex -3.02177 1.1964 -5
    endloop
  endfacet
  facet normal -0 0 1
    outer loop
      vertex 2.848 -1.5657 -5
      vertex 13.4372 -8.41313 -5
      vertex 3.02177 -1.1964 -5
    endloop
  endfacet
  facet normal -0 0 1
    outer loop
      vertex 2.6293 -1.9103 -5
      vertex 13.4372 -8.41313 -5
      vertex 2.848 -1.5657 -5
    endloop
  endfacet
  facet normal 0 0 1
    outer loop
      vertex 13.4372 -8.41313 -5
      vertex 2.6293 -1.9103 -5
      vertex 9.98143 -11.6583 -5
    endloop
  endfacet
  facet normal -0 0 1
    outer loop
      vertex 2.36915 -2.22478 -5
      vertex 9.98143 -11.6583 -5
      vertex 2.6293 -1.9103 -5
    endloop
  endfacet
  facet normal -0 0 1
    outer loop
      vertex 2.07163 -2.50417 -5
      vertex 9.98143 -11.6583 -5
      vertex 2.36915 -2.22478 -5
    endloop
  endfacet
  facet normal -0 0 1
    outer loop
      vertex 1.74144 -2.74407 -5
      vertex 9.98143 -11.6583 -5
      vertex 2.07163 -2.50417 -5
    endloop
  endfacet
  facet normal -0 0 1
    outer loop
      vertex 1.38378 -2.94069 -5
      vertex 9.98143 -11.6583 -5
      vertex 1.74144 -2.74407 -5
    endloop
  endfacet
  facet normal -0 0 1
    outer loop
      vertex 1.0043 -3.09093 -5
      vertex 9.98143 -11.6583 -5
      vertex 1.38378 -2.94069 -5
    endloop
  endfacet
  facet normal 0 0 1
    outer loop
      vertex 9.98143 -11.6583 -5
      vertex 1.0043 -3.09093 -5
      vertex 6.95961 -15.3111 -5
    endloop
  endfacet
  facet normal -0 0 1
    outer loop
      vertex 0.608989 -3.19243 -5
      vertex 6.95961 -15.3111 -5
      vertex 1.0043 -3.09093 -5
    endloop
  endfacet
  facet normal -0 0 1
    outer loop
      vertex 0.204069 -3.24359 -5
      vertex 6.95961 -15.3111 -5
      vertex 0.608989 -3.19243 -5
    endloop
  endfacet
  facet normal 0 0 1
    outer loop
      vertex -6.95961 -15.3111 -5
      vertex 6.95961 -15.3111 -5
      vertex 0.204069 -3.24359 -5
    endloop
  endfacet
  facet normal 0 0 1
    outer loop
      vertex 6.95961 -15.3111 -5
      vertex -6.95961 -15.3111 -5
      vertex 4.41942 -19.3138 -5
    endloop
  endfacet
  facet normal 0 0 1
    outer loop
      vertex -6.95961 -15.3111 -5
      vertex 0.204069 -3.24359 -5
      vertex -0.204069 -3.24359 -5
    endloop
  endfacet
  facet normal 0 0 1
    outer loop
      vertex -6.95961 -15.3111 -5
      vertex -0.204069 -3.24359 -5
      vertex -0.608989 -3.19243 -5
    endloop
  endfacet
  facet normal 0 0 1
    outer loop
      vertex -6.95961 -15.3111 -5
      vertex -0.608989 -3.19243 -5
      vertex -1.0043 -3.09093 -5
    endloop
  endfacet
  facet normal 0 0 1
    outer loop
      vertex -9.98143 -11.6583 -5
      vertex -1.0043 -3.09093 -5
      vertex -1.38378 -2.94069 -5
    endloop
  endfacet
  facet normal 0 0 1
    outer loop
      vertex -9.98143 -11.6583 -5
      vertex -1.38378 -2.94069 -5
      vertex -1.74144 -2.74407 -5
    endloop
  endfacet
  facet normal 0 0 1
    outer loop
      vertex -9.98143 -11.6583 -5
      vertex -1.74144 -2.74407 -5
      vertex -2.07163 -2.50417 -5
    endloop
  endfacet
  facet normal 0 0 1
    outer loop
      vertex -9.98143 -11.6583 -5
      vertex -2.07163 -2.50417 -5
      vertex -2.36915 -2.22478 -5
    endloop
  endfacet
  facet normal 0 0 1
    outer loop
      vertex -9.98143 -11.6583 -5
      vertex -2.36915 -2.22478 -5
      vertex -2.6293 -1.9103 -5
    endloop
  endfacet
  facet normal 0 0 1
    outer loop
      vertex -13.4372 -8.41313 -5
      vertex -2.6293 -1.9103 -5
      vertex -2.848 -1.5657 -5
    endloop
  endfacet
  facet normal 0 0 1
    outer loop
      vertex -13.4372 -8.41313 -5
      vertex -2.848 -1.5657 -5
      vertex -3.02177 -1.1964 -5
    endloop
  endfacet
  facet normal 0 0 1
    outer loop
      vertex -13.4372 -8.41313 -5
      vertex -3.02177 -1.1964 -5
      vertex -3.14789 -0.808242 -5
    endloop
  endfacet
  facet normal 0 0 1
    outer loop
      vertex 4.41942 -19.3138 -5
      vertex -6.95961 -15.3111 -5
      vertex -4.41942 -19.3138 -5
    endloop
  endfacet
  facet normal 0 0 1
    outer loop
      vertex -13.4372 -8.41313 -5
      vertex -3.14789 -0.808242 -5
      vertex -3.22437 -0.407332 -5
    endloop
  endfacet
  facet normal 0 0 1
    outer loop
      vertex -17.2725 -5.62662 -5
      vertex -3.22437 -0.407332 -5
      vertex -3.25 0 -5
    endloop
  endfacet
  facet normal 0 0 1
    outer loop
      vertex -3.02177 1.1964 -5
      vertex -13.4372 8.41313 -5
      vertex -3.14789 0.808242 -5
    endloop
  endfacet
  facet normal 0 0 1
    outer loop
      vertex 3.16004 -21.9901 -5
      vertex -4.41942 -19.3138 -5
      vertex -3.16004 -21.9901 -5
    endloop
  endfacet
  facet normal 0 0 1
    outer loop
      vertex -3.14789 0.808242 -5
      vertex -13.4372 8.41313 -5
      vertex -3.22437 0.407332 -5
    endloop
  endfacet
  facet normal 0 0 1
    outer loop
      vertex 4.41942 -19.3138 -5
      vertex -4.41942 -19.3138 -5
      vertex 3.16004 -21.9901 -5
    endloop
  endfacet
  facet normal -0 0 1
    outer loop
      vertex -17.2725 5.62662 -5
      vertex -3.22437 0.407332 -5
      vertex -13.4372 8.41313 -5
    endloop
  endfacet
  facet normal 0 0 1
    outer loop
      vertex -1.0043 -3.09093 -5
      vertex -9.98143 -11.6583 -5
      vertex -6.95961 -15.3111 -5
    endloop
  endfacet
  facet normal 0 0 1
    outer loop
      vertex -3.22437 0.407332 -5
      vertex -17.2725 5.62662 -5
      vertex -3.25 0 -5
    endloop
  endfacet
  facet normal 0 0 1
    outer loop
      vertex -2.6293 -1.9103 -5
      vertex -13.4372 -8.41313 -5
      vertex -9.98143 -11.6583 -5
    endloop
  endfacet
  facet normal 0 0 1
    outer loop
      vertex -17.2725 -5.62662 -5
      vertex -3.25 0 -5
      vertex -17.2725 5.62662 -5
    endloop
  endfacet
  facet normal 0 0 1
    outer loop
      vertex -3.22437 -0.407332 -5
      vertex -17.2725 -5.62662 -5
      vertex -13.4372 -8.41313 -5
    endloop
  endfacet
  facet normal -0 0 1
    outer loop
      vertex -21.4268 3.34278 -5
      vertex -17.2725 -5.62662 -5
      vertex -17.2725 5.62662 -5
    endloop
  endfacet
  facet normal 0 0 1
    outer loop
      vertex -21.4268 3.34278 -5
      vertex -21.4268 -3.34278 -5
      vertex -17.2725 -5.62662 -5
    endloop
  endfacet
  facet normal -0 0 1
    outer loop
      vertex -22 3.11585 -5
      vertex -21.4268 -3.34278 -5
      vertex -21.4268 3.34278 -5
    endloop
  endfacet
  facet normal 0 0 1
    outer loop
      vertex -21.4268 -3.34278 -5
      vertex -22 3.11585 -5
      vertex -22 -3.11585 -5
    endloop
  endfacet
  facet normal -0 0 1
    outer loop
      vertex -4.26304 21.9901 -5
      vertex -4.41942 19.3138 -5
      vertex -3.16004 21.9901 -5
    endloop
  endfacet
  facet normal -0 0 1
    outer loop
      vertex -5.29573 19.7956 -5
      vertex -4.41942 19.3138 -5
      vertex -4.26304 21.9901 -5
    endloop
  endfacet
  facet normal 0 0 1
    outer loop
      vertex -5.29573 19.7956 -5
      vertex -6.95961 15.3111 -5
      vertex -4.41942 19.3138 -5
    endloop
  endfacet
  facet normal -0 0 1
    outer loop
      vertex -7.76863 15.8989 -5
      vertex -6.95961 15.3111 -5
      vertex -5.29573 19.7956 -5
    endloop
  endfacet
  facet normal 0 0 1
    outer loop
      vertex -7.76863 15.8989 -5
      vertex -9.98143 11.6583 -5
      vertex -6.95961 15.3111 -5
    endloop
  endfacet
  facet normal -0 0 1
    outer loop
      vertex -10.7104 12.3429 -5
      vertex -9.98143 11.6583 -5
      vertex -7.76863 15.8989 -5
    endloop
  endfacet
  facet normal 0 0 1
    outer loop
      vertex -10.7104 12.3429 -5
      vertex -13.4372 8.41313 -5
      vertex -9.98143 11.6583 -5
    endloop
  endfacet
  facet normal -0 0 1
    outer loop
      vertex -14.0747 9.18364 -5
      vertex -13.4372 8.41313 -5
      vertex -10.7104 12.3429 -5
    endloop
  endfacet
  facet normal 0 0 1
    outer loop
      vertex -14.0747 9.18364 -5
      vertex -17.2725 5.62662 -5
      vertex -13.4372 8.41313 -5
    endloop
  endfacet
  facet normal -0 0 1
    outer loop
      vertex -17.8084 6.47095 -5
      vertex -17.2725 5.62662 -5
      vertex -14.0747 9.18364 -5
    endloop
  endfacet
  facet normal 0 0 1
    outer loop
      vertex -17.8084 6.47095 -5
      vertex -21.4268 3.34278 -5
      vertex -17.2725 5.62662 -5
    endloop
  endfacet
  facet normal -0 0 1
    outer loop
      vertex -21.8526 4.24761 -5
      vertex -21.4268 3.34278 -5
      vertex -17.8084 6.47095 -5
    endloop
  endfacet
  facet normal -0 0 1
    outer loop
      vertex -22 4.18925 -5
      vertex -21.4268 3.34278 -5
      vertex -21.8526 4.24761 -5
    endloop
  endfacet
  facet normal 0 0 1
    outer loop
      vertex -21.4268 3.34278 -5
      vertex -22 4.18925 -5
      vertex -22 3.11585 -5
    endloop
  endfacet
  facet normal 0 0 1
    outer loop
      vertex -4.41942 -19.3138 -5
      vertex -4.26304 -21.9901 -5
      vertex -3.16004 -21.9901 -5
    endloop
  endfacet
  facet normal 0 0 1
    outer loop
      vertex -4.41942 -19.3138 -5
      vertex -5.29573 -19.7956 -5
      vertex -4.26304 -21.9901 -5
    endloop
  endfacet
  facet normal 0 0 1
    outer loop
      vertex -6.95961 -15.3111 -5
      vertex -5.29573 -19.7956 -5
      vertex -4.41942 -19.3138 -5
    endloop
  endfacet
  facet normal 0 0 1
    outer loop
      vertex -6.95961 -15.3111 -5
      vertex -7.76863 -15.8989 -5
      vertex -5.29573 -19.7956 -5
    endloop
  endfacet
  facet normal 0 0 1
    outer loop
      vertex -9.98143 -11.6583 -5
      vertex -7.76863 -15.8989 -5
      vertex -6.95961 -15.3111 -5
    endloop
  endfacet
  facet normal 0 0 1
    outer loop
      vertex -9.98143 -11.6583 -5
      vertex -10.7104 -12.3429 -5
      vertex -7.76863 -15.8989 -5
    endloop
  endfacet
  facet normal 0 0 1
    outer loop
      vertex -13.4372 -8.41313 -5
      vertex -10.7104 -12.3429 -5
      vertex -9.98143 -11.6583 -5
    endloop
  endfacet
  facet normal 0 0 1
    outer loop
      vertex -13.4372 -8.41313 -5
      vertex -14.0747 -9.18364 -5
      vertex -10.7104 -12.3429 -5
    endloop
  endfacet
  facet normal 0 0 1
    outer loop
      vertex -17.2725 -5.62662 -5
      vertex -14.0747 -9.18364 -5
      vertex -13.4372 -8.41313 -5
    endloop
  endfacet
  facet normal 0 0 1
    outer loop
      vertex -17.2725 -5.62662 -5
      vertex -17.8084 -6.47095 -5
      vertex -14.0747 -9.18364 -5
    endloop
  endfacet
  facet normal 0 0 1
    outer loop
      vertex -21.4268 -3.34278 -5
      vertex -17.8084 -6.47095 -5
      vertex -17.2725 -5.62662 -5
    endloop
  endfacet
  facet normal 0 0 1
    outer loop
      vertex -21.4268 -3.34278 -5
      vertex -21.8526 -4.24761 -5
      vertex -17.8084 -6.47095 -5
    endloop
  endfacet
  facet normal 0 0 1
    outer loop
      vertex -22 -4.18925 -5
      vertex -21.4268 -3.34278 -5
      vertex -22 -3.11585 -5
    endloop
  endfacet
  facet normal 0 0 1
    outer loop
      vertex -21.4268 -3.34278 -5
      vertex -22 -4.18925 -5
      vertex -21.8526 -4.24761 -5
    endloop
  endfacet
  facet normal 0 0 1
    outer loop
      vertex 21.4268 3.34278 -5
      vertex 22 4.18925 -5
      vertex 21.8526 4.24761 -5
    endloop
  endfacet
  facet normal 0 0 1
    outer loop
      vertex 22 4.18925 -5
      vertex 21.4268 3.34278 -5
      vertex 22 3.11585 -5
    endloop
  endfacet
  facet normal 0 0 1
    outer loop
      vertex 17.8084 6.47095 -5
      vertex 21.4268 3.34278 -5
      vertex 21.8526 4.24761 -5
    endloop
  endfacet
  facet normal 0 0 1
    outer loop
      vertex 17.8084 6.47095 -5
      vertex 17.2725 5.62662 -5
      vertex 21.4268 3.34278 -5
    endloop
  endfacet
  facet normal 0 0 1
    outer loop
      vertex 14.0747 9.18364 -5
      vertex 17.2725 5.62662 -5
      vertex 17.8084 6.47095 -5
    endloop
  endfacet
  facet normal 0 0 1
    outer loop
      vertex 14.0747 9.18364 -5
      vertex 13.4372 8.41313 -5
      vertex 17.2725 5.62662 -5
    endloop
  endfacet
  facet normal 0 0 1
    outer loop
      vertex 10.7104 12.3429 -5
      vertex 13.4372 8.41313 -5
      vertex 14.0747 9.18364 -5
    endloop
  endfacet
  facet normal 0 0 1
    outer loop
      vertex 10.7104 12.3429 -5
      vertex 9.98143 11.6583 -5
      vertex 13.4372 8.41313 -5
    endloop
  endfacet
  facet normal 0 0 1
    outer loop
      vertex 7.76863 15.8989 -5
      vertex 9.98143 11.6583 -5
      vertex 10.7104 12.3429 -5
    endloop
  endfacet
  facet normal 0 0 1
    outer loop
      vertex 7.76863 15.8989 -5
      vertex 6.95961 15.3111 -5
      vertex 9.98143 11.6583 -5
    endloop
  endfacet
  facet normal 0 0 1
    outer loop
      vertex 5.29573 19.7956 -5
      vertex 6.95961 15.3111 -5
      vertex 7.76863 15.8989 -5
    endloop
  endfacet
  facet normal 0 0 1
    outer loop
      vertex 5.29573 19.7956 -5
      vertex 4.41942 19.3138 -5
      vertex 6.95961 15.3111 -5
    endloop
  endfacet
  facet normal 0 0 1
    outer loop
      vertex 4.26304 21.9901 -5
      vertex 4.41942 19.3138 -5
      vertex 5.29573 19.7956 -5
    endloop
  endfacet
  facet normal 0 0 1
    outer loop
      vertex 4.41942 19.3138 -5
      vertex 4.26304 21.9901 -5
      vertex 3.16004 21.9901 -5
    endloop
  endfacet
  facet normal 0.587785 0.809017 -0
    outer loop
      vertex 17.8084 6.47095 -17
      vertex 14.0747 9.18364 -5
      vertex 17.8084 6.47095 -5
    endloop
  endfacet
  facet normal 0.587785 0.809017 0
    outer loop
      vertex 14.0747 9.18364 -5
      vertex 17.8084 6.47095 -17
      vertex 14.0747 9.18364 -17
    endloop
  endfacet
  facet normal 0.84433 0.535824 0
    outer loop
      vertex 7.76863 15.8989 -5
      vertex 5.29573 19.7956 -17
      vertex 5.29573 19.7956 -5
    endloop
  endfacet
  facet normal 0.84433 0.535824 0
    outer loop
      vertex 5.29573 19.7956 -17
      vertex 7.76863 15.8989 -5
      vertex 7.76863 15.8989 -17
    endloop
  endfacet
  facet normal 0.684544 0.728972 -0
    outer loop
      vertex 14.0747 9.18364 -17
      vertex 10.7104 12.3429 -5
      vertex 14.0747 9.18364 -5
    endloop
  endfacet
  facet normal 0.684544 0.728972 0
    outer loop
      vertex 10.7104 12.3429 -5
      vertex 14.0747 9.18364 -17
      vertex 10.7104 12.3429 -17
    endloop
  endfacet
  facet normal 0.904821 0.425792 0
    outer loop
      vertex 5.29573 19.7956 -5
      vertex 4.26304 21.9901 -17
      vertex 4.26304 21.9901 -5
    endloop
  endfacet
  facet normal 0.904821 0.425792 0
    outer loop
      vertex 4.26304 21.9901 -17
      vertex 5.29573 19.7956 -5
      vertex 5.29573 19.7956 -17
    endloop
  endfacet
  facet normal 0.368126 0.929776 -0
    outer loop
      vertex 22 4.18925 -17
      vertex 21.8526 4.24761 -5
      vertex 22 4.18925 -5
    endloop
  endfacet
  facet normal 0.368126 0.929776 0
    outer loop
      vertex 21.8526 4.24761 -5
      vertex 22 4.18925 -17
      vertex 21.8526 4.24761 -17
    endloop
  endfacet
  facet normal 0.770514 0.637423 0
    outer loop
      vertex 10.7104 12.3429 -5
      vertex 7.76863 15.8989 -17
      vertex 7.76863 15.8989 -5
    endloop
  endfacet
  facet normal 0.770514 0.637423 0
    outer loop
      vertex 7.76863 15.8989 -17
      vertex 10.7104 12.3429 -5
      vertex 10.7104 12.3429 -17
    endloop
  endfacet
  facet normal 0.481757 0.876305 -0
    outer loop
      vertex 21.8526 4.24761 -17
      vertex 17.8084 6.47095 -5
      vertex 21.8526 4.24761 -5
    endloop
  endfacet
  facet normal 0.481757 0.876305 0
    outer loop
      vertex 17.8084 6.47095 -5
      vertex 21.8526 4.24761 -17
      vertex 17.8084 6.47095 -17
    endloop
  endfacet
  facet normal -0.587785 0.809017 0
    outer loop
      vertex -14.0747 9.18364 -17
      vertex -17.8084 6.47095 -5
      vertex -14.0747 9.18364 -5
    endloop
  endfacet
  facet normal -0.587785 0.809017 0
    outer loop
      vertex -17.8084 6.47095 -5
      vertex -14.0747 9.18364 -17
      vertex -17.8084 6.47095 -17
    endloop
  endfacet
  facet normal -0.904821 0.425792 0
    outer loop
      vertex -5.29573 19.7956 -17
      vertex -4.26304 21.9901 -5
      vertex -4.26304 21.9901 -17
    endloop
  endfacet
  facet normal -0.904821 0.425792 0
    outer loop
      vertex -4.26304 21.9901 -5
      vertex -5.29573 19.7956 -17
      vertex -5.29573 19.7956 -5
    endloop
  endfacet
  facet normal -0.481757 0.876305 0
    outer loop
      vertex -17.8084 6.47095 -17
      vertex -21.8526 4.24761 -5
      vertex -17.8084 6.47095 -5
    endloop
  endfacet
  facet normal -0.481757 0.876305 0
    outer loop
      vertex -21.8526 4.24761 -5
      vertex -17.8084 6.47095 -17
      vertex -21.8526 4.24761 -17
    endloop
  endfacet
  facet normal -0.684544 0.728972 0
    outer loop
      vertex -10.7104 12.3429 -17
      vertex -14.0747 9.18364 -5
      vertex -10.7104 12.3429 -5
    endloop
  endfacet
  facet normal -0.684544 0.728972 0
    outer loop
      vertex -14.0747 9.18364 -5
      vertex -10.7104 12.3429 -17
      vertex -14.0747 9.18364 -17
    endloop
  endfacet
  facet normal -0.84433 0.535824 0
    outer loop
      vertex -7.76863 15.8989 -17
      vertex -5.29573 19.7956 -5
      vertex -5.29573 19.7956 -17
    endloop
  endfacet
  facet normal -0.84433 0.535824 0
    outer loop
      vertex -5.29573 19.7956 -5
      vertex -7.76863 15.8989 -17
      vertex -7.76863 15.8989 -5
    endloop
  endfacet
  facet normal -0.368126 0.929776 0
    outer loop
      vertex -21.8526 4.24761 -17
      vertex -22 4.18925 -5
      vertex -21.8526 4.24761 -5
    endloop
  endfacet
  facet normal -0.368126 0.929776 0
    outer loop
      vertex -22 4.18925 -5
      vertex -21.8526 4.24761 -17
      vertex -22 4.18925 -17
    endloop
  endfacet
  facet normal -0.770514 0.637423 0
    outer loop
      vertex -10.7104 12.3429 -17
      vertex -7.76863 15.8989 -5
      vertex -7.76863 15.8989 -17
    endloop
  endfacet
  facet normal -0.770514 0.637423 0
    outer loop
      vertex -7.76863 15.8989 -5
      vertex -10.7104 12.3429 -17
      vertex -10.7104 12.3429 -5
    endloop
  endfacet
  facet normal 0.770514 -0.637423 0
    outer loop
      vertex 7.76863 -15.8989 -5
      vertex 10.7104 -12.3429 -17
      vertex 10.7104 -12.3429 -5
    endloop
  endfacet
  facet normal 0.770514 -0.637423 0
    outer loop
      vertex 10.7104 -12.3429 -17
      vertex 7.76863 -15.8989 -5
      vertex 7.76863 -15.8989 -17
    endloop
  endfacet
  facet normal 0.481757 -0.876305 0
    outer loop
      vertex 17.8084 -6.47095 -17
      vertex 21.8526 -4.24761 -5
      vertex 17.8084 -6.47095 -5
    endloop
  endfacet
  facet normal 0.481757 -0.876305 0
    outer loop
      vertex 21.8526 -4.24761 -5
      vertex 17.8084 -6.47095 -17
      vertex 21.8526 -4.24761 -17
    endloop
  endfacet
  facet normal 0.904821 -0.425792 0
    outer loop
      vertex 4.26304 -21.9901 -5
      vertex 5.29573 -19.7956 -17
      vertex 5.29573 -19.7956 -5
    endloop
  endfacet
  facet normal 0.904821 -0.425792 0
    outer loop
      vertex 5.29573 -19.7956 -17
      vertex 4.26304 -21.9901 -5
      vertex 4.26304 -21.9901 -17
    endloop
  endfacet
  facet normal 0.587785 -0.809017 0
    outer loop
      vertex 14.0747 -9.18364 -17
      vertex 17.8084 -6.47095 -5
      vertex 14.0747 -9.18364 -5
    endloop
  endfacet
  facet normal 0.587785 -0.809017 0
    outer loop
      vertex 17.8084 -6.47095 -5
      vertex 14.0747 -9.18364 -17
      vertex 17.8084 -6.47095 -17
    endloop
  endfacet
  facet normal 0.368126 -0.929776 0
    outer loop
      vertex 21.8526 -4.24761 -17
      vertex 22 -4.18925 -5
      vertex 21.8526 -4.24761 -5
    endloop
  endfacet
  facet normal 0.368126 -0.929776 0
    outer loop
      vertex 22 -4.18925 -5
      vertex 21.8526 -4.24761 -17
      vertex 22 -4.18925 -17
    endloop
  endfacet
  facet normal 0.84433 -0.535824 0
    outer loop
      vertex 5.29573 -19.7956 -5
      vertex 7.76863 -15.8989 -17
      vertex 7.76863 -15.8989 -5
    endloop
  endfacet
  facet normal 0.84433 -0.535824 0
    outer loop
      vertex 7.76863 -15.8989 -17
      vertex 5.29573 -19.7956 -5
      vertex 5.29573 -19.7956 -17
    endloop
  endfacet
  facet normal 0.684544 -0.728972 0
    outer loop
      vertex 10.7104 -12.3429 -17
      vertex 14.0747 -9.18364 -5
      vertex 10.7104 -12.3429 -5
    endloop
  endfacet
  facet normal 0.684544 -0.728972 0
    outer loop
      vertex 14.0747 -9.18364 -5
      vertex 10.7104 -12.3429 -17
      vertex 14.0747 -9.18364 -17
    endloop
  endfacet
  facet normal -0.904821 -0.425792 0
    outer loop
      vertex -4.26304 -21.9901 -17
      vertex -5.29573 -19.7956 -5
      vertex -5.29573 -19.7956 -17
    endloop
  endfacet
  facet normal -0.904821 -0.425792 0
    outer loop
      vertex -5.29573 -19.7956 -5
      vertex -4.26304 -21.9901 -17
      vertex -4.26304 -21.9901 -5
    endloop
  endfacet
  facet normal -0.84433 -0.535824 0
    outer loop
      vertex -5.29573 -19.7956 -17
      vertex -7.76863 -15.8989 -5
      vertex -7.76863 -15.8989 -17
    endloop
  endfacet
  facet normal -0.84433 -0.535824 0
    outer loop
      vertex -7.76863 -15.8989 -5
      vertex -5.29573 -19.7956 -17
      vertex -5.29573 -19.7956 -5
    endloop
  endfacet
  facet normal -0.368126 -0.929776 0
    outer loop
      vertex -22 -4.18925 -17
      vertex -21.8526 -4.24761 -5
      vertex -22 -4.18925 -5
    endloop
  endfacet
  facet normal -0.368126 -0.929776 -0
    outer loop
      vertex -21.8526 -4.24761 -5
      vertex -22 -4.18925 -17
      vertex -21.8526 -4.24761 -17
    endloop
  endfacet
  facet normal -0.684544 -0.728972 0
    outer loop
      vertex -14.0747 -9.18364 -17
      vertex -10.7104 -12.3429 -5
      vertex -14.0747 -9.18364 -5
    endloop
  endfacet
  facet normal -0.684544 -0.728972 -0
    outer loop
      vertex -10.7104 -12.3429 -5
      vertex -14.0747 -9.18364 -17
      vertex -10.7104 -12.3429 -17
    endloop
  endfacet
  facet normal -0.770514 -0.637423 0
    outer loop
      vertex -7.76863 -15.8989 -17
      vertex -10.7104 -12.3429 -5
      vertex -10.7104 -12.3429 -17
    endloop
  endfacet
  facet normal -0.770514 -0.637423 0
    outer loop
      vertex -10.7104 -12.3429 -5
      vertex -7.76863 -15.8989 -17
      vertex -7.76863 -15.8989 -5
    endloop
  endfacet
  facet normal -0.587785 -0.809017 0
    outer loop
      vertex -17.8084 -6.47095 -17
      vertex -14.0747 -9.18364 -5
      vertex -17.8084 -6.47095 -5
    endloop
  endfacet
  facet normal -0.587785 -0.809017 -0
    outer loop
      vertex -14.0747 -9.18364 -5
      vertex -17.8084 -6.47095 -17
      vertex -14.0747 -9.18364 -17
    endloop
  endfacet
  facet normal -0.481757 -0.876305 0
    outer loop
      vertex -21.8526 -4.24761 -17
      vertex -17.8084 -6.47095 -5
      vertex -21.8526 -4.24761 -5
    endloop
  endfacet
  facet normal -0.481757 -0.876305 -0
    outer loop
      vertex -17.8084 -6.47095 -5
      vertex -21.8526 -4.24761 -17
      vertex -17.8084 -6.47095 -17
    endloop
  endfacet
  facet normal -0.998026 -0.0627975 0
    outer loop
      vertex 3.25 0 -17
      vertex 3.22437 0.407332 -5
      vertex 3.22437 0.407332 -17
    endloop
  endfacet
  facet normal -0.998026 -0.0627975 0
    outer loop
      vertex 3.22437 0.407332 -5
      vertex 3.25 0 -17
      vertex 3.25 0 -5
    endloop
  endfacet
  facet normal 0.998026 -0.0627975 0
    outer loop
      vertex -3.25 0 -5
      vertex -3.22437 0.407332 -17
      vertex -3.22437 0.407332 -5
    endloop
  endfacet
  facet normal 0.998026 -0.0627975 0
    outer loop
      vertex -3.22437 0.407332 -17
      vertex -3.25 0 -5
      vertex -3.25 0 -17
    endloop
  endfacet
  facet normal 0 -1 0
    outer loop
      vertex -0.204069 3.24359 -17
      vertex 0.204069 3.24359 -5
      vertex -0.204069 3.24359 -5
    endloop
  endfacet
  facet normal 0 -1 -0
    outer loop
      vertex 0.204069 3.24359 -5
      vertex -0.204069 3.24359 -17
      vertex 0.204069 3.24359 -17
    endloop
  endfacet
  facet normal 0 1 -0
    outer loop
      vertex 0.204069 -3.24359 -17
      vertex -0.204069 -3.24359 -5
      vertex 0.204069 -3.24359 -5
    endloop
  endfacet
  facet normal 0 1 0
    outer loop
      vertex -0.204069 -3.24359 -5
      vertex 0.204069 -3.24359 -17
      vertex -0.204069 -3.24359 -17
    endloop
  endfacet
  facet normal -0.684547 -0.728968 0
    outer loop
      vertex 2.07163 2.50417 -17
      vertex 2.36915 2.22478 -5
      vertex 2.07163 2.50417 -5
    endloop
  endfacet
  facet normal -0.684547 -0.728968 -0
    outer loop
      vertex 2.36915 2.22478 -5
      vertex 2.07163 2.50417 -17
      vertex 2.36915 2.22478 -17
    endloop
  endfacet
  facet normal 0.684547 -0.728968 0
    outer loop
      vertex -2.36915 2.22478 -17
      vertex -2.07163 2.50417 -5
      vertex -2.36915 2.22478 -5
    endloop
  endfacet
  facet normal 0.684547 -0.728968 0
    outer loop
      vertex -2.07163 2.50417 -5
      vertex -2.36915 2.22478 -17
      vertex -2.07163 2.50417 -17
    endloop
  endfacet
  facet normal 0.36811 -0.929782 0
    outer loop
      vertex -1.38378 2.94069 -17
      vertex -1.0043 3.09093 -5
      vertex -1.38378 2.94069 -5
    endloop
  endfacet
  facet normal 0.36811 -0.929782 0
    outer loop
      vertex -1.0043 3.09093 -5
      vertex -1.38378 2.94069 -17
      vertex -1.0043 3.09093 -17
    endloop
  endfacet
  facet normal -0.904836 -0.42576 0
    outer loop
      vertex 3.02177 1.1964 -17
      vertex 2.848 1.5657 -5
      vertex 2.848 1.5657 -17
    endloop
  endfacet
  facet normal -0.904836 -0.42576 0
    outer loop
      vertex 2.848 1.5657 -5
      vertex 3.02177 1.1964 -17
      vertex 3.02177 1.1964 -5
    endloop
  endfacet
  facet normal -0.844317 -0.535845 0
    outer loop
      vertex 2.848 1.5657 -17
      vertex 2.6293 1.9103 -5
      vertex 2.6293 1.9103 -17
    endloop
  endfacet
  facet normal -0.844317 -0.535845 0
    outer loop
      vertex 2.6293 1.9103 -5
      vertex 2.848 1.5657 -17
      vertex 2.848 1.5657 -5
    endloop
  endfacet
  facet normal -0.36811 -0.929782 0
    outer loop
      vertex 1.0043 3.09093 -17
      vertex 1.38378 2.94069 -5
      vertex 1.0043 3.09093 -5
    endloop
  endfacet
  facet normal -0.36811 -0.929782 -0
    outer loop
      vertex 1.38378 2.94069 -5
      vertex 1.0043 3.09093 -17
      vertex 1.38378 2.94069 -17
    endloop
  endfacet
  facet normal -0.248693 -0.968582 0
    outer loop
      vertex 0.608989 3.19243 -17
      vertex 1.0043 3.09093 -5
      vertex 0.608989 3.19243 -5
    endloop
  endfacet
  facet normal -0.248693 -0.968582 -0
    outer loop
      vertex 1.0043 3.09093 -5
      vertex 0.608989 3.19243 -17
      vertex 1.0043 3.09093 -17
    endloop
  endfacet
  facet normal -0.58779 -0.809014 0
    outer loop
      vertex 1.74144 2.74407 -17
      vertex 2.07163 2.50417 -5
      vertex 1.74144 2.74407 -5
    endloop
  endfacet
  facet normal -0.58779 -0.809014 -0
    outer loop
      vertex 2.07163 2.50417 -5
      vertex 1.74144 2.74407 -17
      vertex 2.07163 2.50417 -17
    endloop
  endfacet
  facet normal 0.904836 -0.42576 0
    outer loop
      vertex -3.02177 1.1964 -5
      vertex -2.848 1.5657 -17
      vertex -2.848 1.5657 -5
    endloop
  endfacet
  facet normal 0.904836 -0.42576 0
    outer loop
      vertex -2.848 1.5657 -17
      vertex -3.02177 1.1964 -5
      vertex -3.02177 1.1964 -17
    endloop
  endfacet
  facet normal 0.770526 -0.637409 0
    outer loop
      vertex -2.6293 1.9103 -5
      vertex -2.36915 2.22478 -17
      vertex -2.36915 2.22478 -5
    endloop
  endfacet
  facet normal 0.770526 -0.637409 0
    outer loop
      vertex -2.36915 2.22478 -17
      vertex -2.6293 1.9103 -5
      vertex -2.6293 1.9103 -17
    endloop
  endfacet
  facet normal 0.951057 -0.309017 0
    outer loop
      vertex -3.14789 0.808242 -5
      vertex -3.02177 1.1964 -17
      vertex -3.02177 1.1964 -5
    endloop
  endfacet
  facet normal 0.951057 -0.309017 0
    outer loop
      vertex -3.02177 1.1964 -17
      vertex -3.14789 0.808242 -5
      vertex -3.14789 0.808242 -17
    endloop
  endfacet
  facet normal 0.481744 -0.876312 0
    outer loop
      vertex -1.74144 2.74407 -17
      vertex -1.38378 2.94069 -5
      vertex -1.74144 2.74407 -5
    endloop
  endfacet
  facet normal 0.481744 -0.876312 0
    outer loop
      vertex -1.38378 2.94069 -5
      vertex -1.74144 2.74407 -17
      vertex -1.38378 2.94069 -17
    endloop
  endfacet
  facet normal 0.125349 -0.992113 0
    outer loop
      vertex -0.608989 3.19243 -17
      vertex -0.204069 3.24359 -5
      vertex -0.608989 3.19243 -5
    endloop
  endfacet
  facet normal 0.125349 -0.992113 0
    outer loop
      vertex -0.204069 3.24359 -5
      vertex -0.608989 3.19243 -17
      vertex -0.204069 3.24359 -17
    endloop
  endfacet
  facet normal -0.125349 0.992113 0
    outer loop
      vertex 0.608989 -3.19243 -17
      vertex 0.204069 -3.24359 -5
      vertex 0.608989 -3.19243 -5
    endloop
  endfacet
  facet normal -0.125349 0.992113 0
    outer loop
      vertex 0.204069 -3.24359 -5
      vertex 0.608989 -3.19243 -17
      vertex 0.204069 -3.24359 -17
    endloop
  endfacet
  facet normal -0.481744 0.876312 0
    outer loop
      vertex 1.74144 -2.74407 -17
      vertex 1.38378 -2.94069 -5
      vertex 1.74144 -2.74407 -5
    endloop
  endfacet
  facet normal -0.481744 0.876312 0
    outer loop
      vertex 1.38378 -2.94069 -5
      vertex 1.74144 -2.74407 -17
      vertex 1.38378 -2.94069 -17
    endloop
  endfacet
  facet normal -0.951057 -0.309017 0
    outer loop
      vertex 3.14789 0.808242 -17
      vertex 3.02177 1.1964 -5
      vertex 3.02177 1.1964 -17
    endloop
  endfacet
  facet normal -0.951057 -0.309017 0
    outer loop
      vertex 3.02177 1.1964 -5
      vertex 3.14789 0.808242 -17
      vertex 3.14789 0.808242 -5
    endloop
  endfacet
  facet normal -0.982286 -0.187387 0
    outer loop
      vertex 3.22437 0.407332 -17
      vertex 3.14789 0.808242 -5
      vertex 3.14789 0.808242 -17
    endloop
  endfacet
  facet normal -0.982286 -0.187387 0
    outer loop
      vertex 3.14789 0.808242 -5
      vertex 3.22437 0.407332 -17
      vertex 3.22437 0.407332 -5
    endloop
  endfacet
  facet normal -0.770526 -0.637409 0
    outer loop
      vertex 2.6293 1.9103 -17
      vertex 2.36915 2.22478 -5
      vertex 2.36915 2.22478 -17
    endloop
  endfacet
  facet normal -0.770526 -0.637409 0
    outer loop
      vertex 2.36915 2.22478 -5
      vertex 2.6293 1.9103 -17
      vertex 2.6293 1.9103 -5
    endloop
  endfacet
  facet normal -0.125349 -0.992113 0
    outer loop
      vertex 0.204069 3.24359 -17
      vertex 0.608989 3.19243 -5
      vertex 0.204069 3.24359 -5
    endloop
  endfacet
  facet normal -0.125349 -0.992113 -0
    outer loop
      vertex 0.608989 3.19243 -5
      vertex 0.204069 3.24359 -17
      vertex 0.608989 3.19243 -17
    endloop
  endfacet
  facet normal -0.481744 -0.876312 0
    outer loop
      vertex 1.38378 2.94069 -17
      vertex 1.74144 2.74407 -5
      vertex 1.38378 2.94069 -5
    endloop
  endfacet
  facet normal -0.481744 -0.876312 -0
    outer loop
      vertex 1.74144 2.74407 -5
      vertex 1.38378 2.94069 -17
      vertex 1.74144 2.74407 -17
    endloop
  endfacet
  facet normal 0.844317 -0.535845 0
    outer loop
      vertex -2.848 1.5657 -5
      vertex -2.6293 1.9103 -17
      vertex -2.6293 1.9103 -5
    endloop
  endfacet
  facet normal 0.844317 -0.535845 0
    outer loop
      vertex -2.6293 1.9103 -17
      vertex -2.848 1.5657 -5
      vertex -2.848 1.5657 -17
    endloop
  endfacet
  facet normal 0.982286 -0.187387 0
    outer loop
      vertex -3.22437 0.407332 -5
      vertex -3.14789 0.808242 -17
      vertex -3.14789 0.808242 -5
    endloop
  endfacet
  facet normal 0.982286 -0.187387 0
    outer loop
      vertex -3.14789 0.808242 -17
      vertex -3.22437 0.407332 -5
      vertex -3.22437 0.407332 -17
    endloop
  endfacet
  facet normal 0.58779 -0.809014 0
    outer loop
      vertex -2.07163 2.50417 -17
      vertex -1.74144 2.74407 -5
      vertex -2.07163 2.50417 -5
    endloop
  endfacet
  facet normal 0.58779 -0.809014 0
    outer loop
      vertex -1.74144 2.74407 -5
      vertex -2.07163 2.50417 -17
      vertex -1.74144 2.74407 -17
    endloop
  endfacet
  facet normal 0.248693 -0.968582 0
    outer loop
      vertex -1.0043 3.09093 -17
      vertex -0.608989 3.19243 -5
      vertex -1.0043 3.09093 -5
    endloop
  endfacet
  facet normal 0.248693 -0.968582 0
    outer loop
      vertex -0.608989 3.19243 -5
      vertex -1.0043 3.09093 -17
      vertex -0.608989 3.19243 -17
    endloop
  endfacet
  facet normal -0.998026 0.0627975 0
    outer loop
      vertex 3.22437 -0.407332 -17
      vertex 3.25 0 -5
      vertex 3.25 0 -17
    endloop
  endfacet
  facet normal -0.998026 0.0627975 0
    outer loop
      vertex 3.25 0 -5
      vertex 3.22437 -0.407332 -17
      vertex 3.22437 -0.407332 -5
    endloop
  endfacet
  facet normal -0.951057 0.309017 0
    outer loop
      vertex 3.02177 -1.1964 -17
      vertex 3.14789 -0.808242 -5
      vertex 3.14789 -0.808242 -17
    endloop
  endfacet
  facet normal -0.951057 0.309017 0
    outer loop
      vertex 3.14789 -0.808242 -5
      vertex 3.02177 -1.1964 -17
      vertex 3.02177 -1.1964 -5
    endloop
  endfacet
  facet normal -0.982286 0.187387 0
    outer loop
      vertex 3.14789 -0.808242 -17
      vertex 3.22437 -0.407332 -5
      vertex 3.22437 -0.407332 -17
    endloop
  endfacet
  facet normal -0.982286 0.187387 0
    outer loop
      vertex 3.22437 -0.407332 -5
      vertex 3.14789 -0.808242 -17
      vertex 3.14789 -0.808242 -5
    endloop
  endfacet
  facet normal 0.904836 0.42576 0
    outer loop
      vertex -2.848 -1.5657 -5
      vertex -3.02177 -1.1964 -17
      vertex -3.02177 -1.1964 -5
    endloop
  endfacet
  facet normal 0.904836 0.42576 0
    outer loop
      vertex -3.02177 -1.1964 -17
      vertex -2.848 -1.5657 -5
      vertex -2.848 -1.5657 -17
    endloop
  endfacet
  facet normal -0.58779 0.809014 0
    outer loop
      vertex 2.07163 -2.50417 -17
      vertex 1.74144 -2.74407 -5
      vertex 2.07163 -2.50417 -5
    endloop
  endfacet
  facet normal -0.58779 0.809014 0
    outer loop
      vertex 1.74144 -2.74407 -5
      vertex 2.07163 -2.50417 -17
      vertex 1.74144 -2.74407 -17
    endloop
  endfacet
  facet normal 0.951057 0.309017 0
    outer loop
      vertex -3.02177 -1.1964 -5
      vertex -3.14789 -0.808242 -17
      vertex -3.14789 -0.808242 -5
    endloop
  endfacet
  facet normal 0.951057 0.309017 0
    outer loop
      vertex -3.14789 -0.808242 -17
      vertex -3.02177 -1.1964 -5
      vertex -3.02177 -1.1964 -17
    endloop
  endfacet
  facet normal -0.684547 0.728968 0
    outer loop
      vertex 2.36915 -2.22478 -17
      vertex 2.07163 -2.50417 -5
      vertex 2.36915 -2.22478 -5
    endloop
  endfacet
  facet normal -0.684547 0.728968 0
    outer loop
      vertex 2.07163 -2.50417 -5
      vertex 2.36915 -2.22478 -17
      vertex 2.07163 -2.50417 -17
    endloop
  endfacet
  facet normal -0.248693 0.968582 0
    outer loop
      vertex 1.0043 -3.09093 -17
      vertex 0.608989 -3.19243 -5
      vertex 1.0043 -3.09093 -5
    endloop
  endfacet
  facet normal -0.248693 0.968582 0
    outer loop
      vertex 0.608989 -3.19243 -5
      vertex 1.0043 -3.09093 -17
      vertex 0.608989 -3.19243 -17
    endloop
  endfacet
  facet normal -0.36811 0.929782 0
    outer loop
      vertex 1.38378 -2.94069 -17
      vertex 1.0043 -3.09093 -5
      vertex 1.38378 -2.94069 -5
    endloop
  endfacet
  facet normal -0.36811 0.929782 0
    outer loop
      vertex 1.0043 -3.09093 -5
      vertex 1.38378 -2.94069 -17
      vertex 1.0043 -3.09093 -17
    endloop
  endfacet
  facet normal -0.904836 0.42576 0
    outer loop
      vertex 2.848 -1.5657 -17
      vertex 3.02177 -1.1964 -5
      vertex 3.02177 -1.1964 -17
    endloop
  endfacet
  facet normal -0.904836 0.42576 0
    outer loop
      vertex 3.02177 -1.1964 -5
      vertex 2.848 -1.5657 -17
      vertex 2.848 -1.5657 -5
    endloop
  endfacet
  facet normal -0.844317 0.535845 0
    outer loop
      vertex 2.6293 -1.9103 -17
      vertex 2.848 -1.5657 -5
      vertex 2.848 -1.5657 -17
    endloop
  endfacet
  facet normal -0.844317 0.535845 0
    outer loop
      vertex 2.848 -1.5657 -5
      vertex 2.6293 -1.9103 -17
      vertex 2.6293 -1.9103 -5
    endloop
  endfacet
  facet normal 0.36811 0.929782 -0
    outer loop
      vertex -1.0043 -3.09093 -17
      vertex -1.38378 -2.94069 -5
      vertex -1.0043 -3.09093 -5
    endloop
  endfacet
  facet normal 0.36811 0.929782 0
    outer loop
      vertex -1.38378 -2.94069 -5
      vertex -1.0043 -3.09093 -17
      vertex -1.38378 -2.94069 -17
    endloop
  endfacet
  facet normal 0.248693 0.968582 -0
    outer loop
      vertex -0.608989 -3.19243 -17
      vertex -1.0043 -3.09093 -5
      vertex -0.608989 -3.19243 -5
    endloop
  endfacet
  facet normal 0.248693 0.968582 0
    outer loop
      vertex -1.0043 -3.09093 -5
      vertex -0.608989 -3.19243 -17
      vertex -1.0043 -3.09093 -17
    endloop
  endfacet
  facet normal 0.770526 0.637409 0
    outer loop
      vertex -2.36915 -2.22478 -5
      vertex -2.6293 -1.9103 -17
      vertex -2.6293 -1.9103 -5
    endloop
  endfacet
  facet normal 0.770526 0.637409 0
    outer loop
      vertex -2.6293 -1.9103 -17
      vertex -2.36915 -2.22478 -5
      vertex -2.36915 -2.22478 -17
    endloop
  endfacet
  facet normal 0.684547 0.728968 -0
    outer loop
      vertex -2.07163 -2.50417 -17
      vertex -2.36915 -2.22478 -5
      vertex -2.07163 -2.50417 -5
    endloop
  endfacet
  facet normal 0.684547 0.728968 0
    outer loop
      vertex -2.36915 -2.22478 -5
      vertex -2.07163 -2.50417 -17
      vertex -2.36915 -2.22478 -17
    endloop
  endfacet
  facet normal 0.982286 0.187387 0
    outer loop
      vertex -3.14789 -0.808242 -5
      vertex -3.22437 -0.407332 -17
      vertex -3.22437 -0.407332 -5
    endloop
  endfacet
  facet normal 0.982286 0.187387 0
    outer loop
      vertex -3.22437 -0.407332 -17
      vertex -3.14789 -0.808242 -5
      vertex -3.14789 -0.808242 -17
    endloop
  endfacet
  facet normal 0.998026 0.0627975 0
    outer loop
      vertex -3.22437 -0.407332 -5
      vertex -3.25 0 -17
      vertex -3.25 0 -5
    endloop
  endfacet
  facet normal 0.998026 0.0627975 0
    outer loop
      vertex -3.25 0 -17
      vertex -3.22437 -0.407332 -5
      vertex -3.22437 -0.407332 -17
    endloop
  endfacet
  facet normal -0.770526 0.637409 0
    outer loop
      vertex 2.36915 -2.22478 -17
      vertex 2.6293 -1.9103 -5
      vertex 2.6293 -1.9103 -17
    endloop
  endfacet
  facet normal -0.770526 0.637409 0
    outer loop
      vertex 2.6293 -1.9103 -5
      vertex 2.36915 -2.22478 -17
      vertex 2.36915 -2.22478 -5
    endloop
  endfacet
  facet normal 0.481744 0.876312 -0
    outer loop
      vertex -1.38378 -2.94069 -17
      vertex -1.74144 -2.74407 -5
      vertex -1.38378 -2.94069 -5
    endloop
  endfacet
  facet normal 0.481744 0.876312 0
    outer loop
      vertex -1.74144 -2.74407 -5
      vertex -1.38378 -2.94069 -17
      vertex -1.74144 -2.74407 -17
    endloop
  endfacet
  facet normal 0.58779 0.809014 -0
    outer loop
      vertex -1.74144 -2.74407 -17
      vertex -2.07163 -2.50417 -5
      vertex -1.74144 -2.74407 -5
    endloop
  endfacet
  facet normal 0.58779 0.809014 0
    outer loop
      vertex -2.07163 -2.50417 -5
      vertex -1.74144 -2.74407 -17
      vertex -2.07163 -2.50417 -17
    endloop
  endfacet
  facet normal 0.125349 0.992113 -0
    outer loop
      vertex -0.204069 -3.24359 -17
      vertex -0.608989 -3.19243 -5
      vertex -0.204069 -3.24359 -5
    endloop
  endfacet
  facet normal 0.125349 0.992113 0
    outer loop
      vertex -0.608989 -3.19243 -5
      vertex -0.204069 -3.24359 -17
      vertex -0.608989 -3.19243 -17
    endloop
  endfacet
  facet normal 0.844317 0.535845 0
    outer loop
      vertex -2.6293 -1.9103 -5
      vertex -2.848 -1.5657 -17
      vertex -2.848 -1.5657 -5
    endloop
  endfacet
  facet normal 0.844317 0.535845 0
    outer loop
      vertex -2.848 -1.5657 -17
      vertex -2.6293 -1.9103 -5
      vertex -2.6293 -1.9103 -17
    endloop
  endfacet
  facet normal -1 0 0
    outer loop
      vertex -22 4.18925 -17
      vertex -22 3.11585 -5
      vertex -22 4.18925 -5
    endloop
  endfacet
  facet normal -1 0 0
    outer loop
      vertex -22 4.18925 -17
      vertex -22 -3.11585 -5
      vertex -22 3.11585 -5
    endloop
  endfacet
  facet normal -1 0 0
    outer loop
      vertex -22 -4.18925 -17
      vertex -22 -3.11585 -5
      vertex -22 4.18925 -17
    endloop
  endfacet
  facet normal -1 -0 0
    outer loop
      vertex -22 -3.11585 -5
      vertex -22 -4.18925 -17
      vertex -22 -4.18925 -5
    endloop
  endfacet
  facet normal 1 -0 0
    outer loop
      vertex 22 3.11585 -5
      vertex 22 4.18925 -17
      vertex 22 4.18925 -5
    endloop
  endfacet
  facet normal 1 -0 0
    outer loop
      vertex 22 -3.11585 -5
      vertex 22 4.18925 -17
      vertex 22 3.11585 -5
    endloop
  endfacet
  facet normal 1 0 0
    outer loop
      vertex 22 -4.18925 -17
      vertex 22 -3.11585 -5
      vertex 22 -4.18925 -5
    endloop
  endfacet
  facet normal 1 0 0
    outer loop
      vertex 22 -3.11585 -5
      vertex 22 -4.18925 -17
      vertex 22 4.18925 -17
    endloop
  endfacet
  facet normal 0 1 -0
    outer loop
      vertex 4.26304 21.9901 -17
      vertex 3.16004 21.9901 -5
      vertex 4.26304 21.9901 -5
    endloop
  endfacet
  facet normal 0 1 0
    outer loop
      vertex 3.16004 21.9901 -5
      vertex 4.26304 21.9901 -17
      vertex -3.16004 21.9901 -5
    endloop
  endfacet
  facet normal 0 1 0
    outer loop
      vertex -4.26304 21.9901 -17
      vertex -3.16004 21.9901 -5
      vertex 4.26304 21.9901 -17
    endloop
  endfacet
  facet normal 0 1 0
    outer loop
      vertex -3.16004 21.9901 -5
      vertex -4.26304 21.9901 -17
      vertex -4.26304 21.9901 -5
    endloop
  endfacet
  facet normal 0 -1 0
    outer loop
      vertex -4.26304 -21.9901 -17
      vertex -3.16004 -21.9901 -5
      vertex -4.26304 -21.9901 -5
    endloop
  endfacet
  facet normal 0 -1 -0
    outer loop
      vertex -3.16004 -21.9901 -5
      vertex -4.26304 -21.9901 -17
      vertex 3.16004 -21.9901 -5
    endloop
  endfacet
  facet normal 0 -1 0
    outer loop
      vertex 4.26304 -21.9901 -17
      vertex 3.16004 -21.9901 -5
      vertex -4.26304 -21.9901 -17
    endloop
  endfacet
  facet normal 0 -1 0
    outer loop
      vertex 3.16004 -21.9901 -5
      vertex 4.26304 -21.9901 -17
      vertex 4.26304 -21.9901 -5
    endloop
  endfacet
  facet normal 0 0 -1
    outer loop
      vertex 21.8526 -4.24761 -17
      vertex 22 4.18925 -17
      vertex 22 -4.18925 -17
    endloop
  endfacet
  facet normal 0 0 -1
    outer loop
      vertex 21.8526 -4.24761 -17
      vertex 21.8526 4.24761 -17
      vertex 22 4.18925 -17
    endloop
  endfacet
  facet normal 0 0 -1
    outer loop
      vertex 17.8084 -6.47095 -17
      vertex 21.8526 4.24761 -17
      vertex 21.8526 -4.24761 -17
    endloop
  endfacet
  facet normal 0 0 -1
    outer loop
      vertex 17.8084 -6.47095 -17
      vertex 17.8084 6.47095 -17
      vertex 21.8526 4.24761 -17
    endloop
  endfacet
  facet normal 0 0 -1
    outer loop
      vertex 3.22437 -0.407332 -17
      vertex 17.8084 -6.47095 -17
      vertex 14.0747 -9.18364 -17
    endloop
  endfacet
  facet normal 0 0 -1
    outer loop
      vertex 17.8084 -6.47095 -17
      vertex 3.25 0 -17
      vertex 17.8084 6.47095 -17
    endloop
  endfacet
  facet normal 0 0 -1
    outer loop
      vertex 2.6293 -1.9103 -17
      vertex 14.0747 -9.18364 -17
      vertex 10.7104 -12.3429 -17
    endloop
  endfacet
  facet normal 0 0 -1
    outer loop
      vertex 17.8084 -6.47095 -17
      vertex 3.22437 -0.407332 -17
      vertex 3.25 0 -17
    endloop
  endfacet
  facet normal 0 0 -1
    outer loop
      vertex 1.38378 -2.94069 -17
      vertex 10.7104 -12.3429 -17
      vertex 7.76863 -15.8989 -17
    endloop
  endfacet
  facet normal 0 0 -1
    outer loop
      vertex 3.22437 0.407332 -17
      vertex 17.8084 6.47095 -17
      vertex 3.25 0 -17
    endloop
  endfacet
  facet normal 0 0 -1
    outer loop
      vertex -7.76863 -15.8989 -17
      vertex 7.76863 -15.8989 -17
      vertex 5.29573 -19.7956 -17
    endloop
  endfacet
  facet normal -0 0 -1
    outer loop
      vertex 17.8084 6.47095 -17
      vertex 3.22437 0.407332 -17
      vertex 14.0747 9.18364 -17
    endloop
  endfacet
  facet normal 0 0 -1
    outer loop
      vertex -5.29573 -19.7956 -17
      vertex 5.29573 -19.7956 -17
      vertex 4.26304 -21.9901 -17
    endloop
  endfacet
  facet normal 0 0 -1
    outer loop
      vertex 3.02177 1.1964 -17
      vertex 14.0747 9.18364 -17
      vertex 3.14789 0.808242 -17
    endloop
  endfacet
  facet normal 0 0 -1
    outer loop
      vertex 2.848 1.5657 -17
      vertex 14.0747 9.18364 -17
      vertex 3.02177 1.1964 -17
    endloop
  endfacet
  facet normal 0 0 -1
    outer loop
      vertex 3.14789 0.808242 -17
      vertex 14.0747 9.18364 -17
      vertex 3.22437 0.407332 -17
    endloop
  endfacet
  facet normal 0 0 -1
    outer loop
      vertex 14.0747 -9.18364 -17
      vertex 3.14789 -0.808242 -17
      vertex 3.22437 -0.407332 -17
    endloop
  endfacet
  facet normal 0 0 -1
    outer loop
      vertex 14.0747 -9.18364 -17
      vertex 3.02177 -1.1964 -17
      vertex 3.14789 -0.808242 -17
    endloop
  endfacet
  facet normal 0 0 -1
    outer loop
      vertex 14.0747 -9.18364 -17
      vertex 2.848 -1.5657 -17
      vertex 3.02177 -1.1964 -17
    endloop
  endfacet
  facet normal 0 0 -1
    outer loop
      vertex 14.0747 -9.18364 -17
      vertex 2.6293 -1.9103 -17
      vertex 2.848 -1.5657 -17
    endloop
  endfacet
  facet normal 0 0 -1
    outer loop
      vertex 10.7104 -12.3429 -17
      vertex 2.36915 -2.22478 -17
      vertex 2.6293 -1.9103 -17
    endloop
  endfacet
  facet normal 0 0 -1
    outer loop
      vertex 10.7104 -12.3429 -17
      vertex 2.07163 -2.50417 -17
      vertex 2.36915 -2.22478 -17
    endloop
  endfacet
  facet normal 0 0 -1
    outer loop
      vertex 10.7104 -12.3429 -17
      vertex 1.74144 -2.74407 -17
      vertex 2.07163 -2.50417 -17
    endloop
  endfacet
  facet normal 0 0 -1
    outer loop
      vertex 10.7104 -12.3429 -17
      vertex 1.38378 -2.94069 -17
      vertex 1.74144 -2.74407 -17
    endloop
  endfacet
  facet normal 0 0 -1
    outer loop
      vertex 7.76863 -15.8989 -17
      vertex 1.0043 -3.09093 -17
      vertex 1.38378 -2.94069 -17
    endloop
  endfacet
  facet normal 0 0 -1
    outer loop
      vertex 7.76863 -15.8989 -17
      vertex 0.608989 -3.19243 -17
      vertex 1.0043 -3.09093 -17
    endloop
  endfacet
  facet normal 0 0 -1
    outer loop
      vertex 7.76863 -15.8989 -17
      vertex 0.204069 -3.24359 -17
      vertex 0.608989 -3.19243 -17
    endloop
  endfacet
  facet normal 0 0 -1
    outer loop
      vertex 7.76863 -15.8989 -17
      vertex -7.76863 -15.8989 -17
      vertex 0.204069 -3.24359 -17
    endloop
  endfacet
  facet normal -0 0 -1
    outer loop
      vertex 0.204069 -3.24359 -17
      vertex -7.76863 -15.8989 -17
      vertex -0.204069 -3.24359 -17
    endloop
  endfacet
  facet normal -0 0 -1
    outer loop
      vertex -0.204069 -3.24359 -17
      vertex -7.76863 -15.8989 -17
      vertex -0.608989 -3.19243 -17
    endloop
  endfacet
  facet normal -0 0 -1
    outer loop
      vertex -0.608989 -3.19243 -17
      vertex -7.76863 -15.8989 -17
      vertex -1.0043 -3.09093 -17
    endloop
  endfacet
  facet normal -0 0 -1
    outer loop
      vertex -1.0043 -3.09093 -17
      vertex -7.76863 -15.8989 -17
      vertex -1.38378 -2.94069 -17
    endloop
  endfacet
  facet normal 0 0 -1
    outer loop
      vertex -10.7104 -12.3429 -17
      vertex -1.38378 -2.94069 -17
      vertex -7.76863 -15.8989 -17
    endloop
  endfacet
  facet normal -0 0 -1
    outer loop
      vertex -1.38378 -2.94069 -17
      vertex -10.7104 -12.3429 -17
      vertex -1.74144 -2.74407 -17
    endloop
  endfacet
  facet normal -0 0 -1
    outer loop
      vertex -1.74144 -2.74407 -17
      vertex -10.7104 -12.3429 -17
      vertex -2.07163 -2.50417 -17
    endloop
  endfacet
  facet normal -0 0 -1
    outer loop
      vertex -2.07163 -2.50417 -17
      vertex -10.7104 -12.3429 -17
      vertex -2.36915 -2.22478 -17
    endloop
  endfacet
  facet normal -0 0 -1
    outer loop
      vertex -2.36915 -2.22478 -17
      vertex -10.7104 -12.3429 -17
      vertex -2.6293 -1.9103 -17
    endloop
  endfacet
  facet normal -0 0 -1
    outer loop
      vertex -2.6293 -1.9103 -17
      vertex -14.0747 -9.18364 -17
      vertex -2.848 -1.5657 -17
    endloop
  endfacet
  facet normal 0 0 -1
    outer loop
      vertex -14.0747 -9.18364 -17
      vertex -2.6293 -1.9103 -17
      vertex -10.7104 -12.3429 -17
    endloop
  endfacet
  facet normal 0 0 -1
    outer loop
      vertex 5.29573 -19.7956 -17
      vertex -5.29573 -19.7956 -17
      vertex -7.76863 -15.8989 -17
    endloop
  endfacet
  facet normal 0 0 -1
    outer loop
      vertex -5.29573 -19.7956 -17
      vertex 4.26304 -21.9901 -17
      vertex -4.26304 -21.9901 -17
    endloop
  endfacet
  facet normal 0 0 -1
    outer loop
      vertex 2.6293 1.9103 -17
      vertex 14.0747 9.18364 -17
      vertex 2.848 1.5657 -17
    endloop
  endfacet
  facet normal -0 0 -1
    outer loop
      vertex 14.0747 9.18364 -17
      vertex 2.6293 1.9103 -17
      vertex 10.7104 12.3429 -17
    endloop
  endfacet
  facet normal 0 0 -1
    outer loop
      vertex 2.36915 2.22478 -17
      vertex 10.7104 12.3429 -17
      vertex 2.6293 1.9103 -17
    endloop
  endfacet
  facet normal 0 0 -1
    outer loop
      vertex 2.07163 2.50417 -17
      vertex 10.7104 12.3429 -17
      vertex 2.36915 2.22478 -17
    endloop
  endfacet
  facet normal 0 0 -1
    outer loop
      vertex 1.74144 2.74407 -17
      vertex 10.7104 12.3429 -17
      vertex 2.07163 2.50417 -17
    endloop
  endfacet
  facet normal 0 0 -1
    outer loop
      vertex 1.38378 2.94069 -17
      vertex 10.7104 12.3429 -17
      vertex 1.74144 2.74407 -17
    endloop
  endfacet
  facet normal -0 0 -1
    outer loop
      vertex 10.7104 12.3429 -17
      vertex 1.38378 2.94069 -17
      vertex 7.76863 15.8989 -17
    endloop
  endfacet
  facet normal 0 0 -1
    outer loop
      vertex 1.0043 3.09093 -17
      vertex 7.76863 15.8989 -17
      vertex 1.38378 2.94069 -17
    endloop
  endfacet
  facet normal 0 0 -1
    outer loop
      vertex 0.608989 3.19243 -17
      vertex 7.76863 15.8989 -17
      vertex 1.0043 3.09093 -17
    endloop
  endfacet
  facet normal 0 0 -1
    outer loop
      vertex 0.204069 3.24359 -17
      vertex 7.76863 15.8989 -17
      vertex 0.608989 3.19243 -17
    endloop
  endfacet
  facet normal 0 0 -1
    outer loop
      vertex -7.76863 15.8989 -17
      vertex 7.76863 15.8989 -17
      vertex 0.204069 3.24359 -17
    endloop
  endfacet
  facet normal 0 0 -1
    outer loop
      vertex 7.76863 15.8989 -17
      vertex -7.76863 15.8989 -17
      vertex 5.29573 19.7956 -17
    endloop
  endfacet
  facet normal 0 0 -1
    outer loop
      vertex -7.76863 15.8989 -17
      vertex 0.204069 3.24359 -17
      vertex -0.204069 3.24359 -17
    endloop
  endfacet
  facet normal 0 0 -1
    outer loop
      vertex -7.76863 15.8989 -17
      vertex -0.204069 3.24359 -17
      vertex -0.608989 3.19243 -17
    endloop
  endfacet
  facet normal 0 0 -1
    outer loop
      vertex -7.76863 15.8989 -17
      vertex -0.608989 3.19243 -17
      vertex -1.0043 3.09093 -17
    endloop
  endfacet
  facet normal 0 0 -1
    outer loop
      vertex -7.76863 15.8989 -17
      vertex -1.0043 3.09093 -17
      vertex -1.38378 2.94069 -17
    endloop
  endfacet
  facet normal 0 0 -1
    outer loop
      vertex -10.7104 12.3429 -17
      vertex -1.38378 2.94069 -17
      vertex -1.74144 2.74407 -17
    endloop
  endfacet
  facet normal 0 0 -1
    outer loop
      vertex -10.7104 12.3429 -17
      vertex -1.74144 2.74407 -17
      vertex -2.07163 2.50417 -17
    endloop
  endfacet
  facet normal 0 0 -1
    outer loop
      vertex -10.7104 12.3429 -17
      vertex -2.07163 2.50417 -17
      vertex -2.36915 2.22478 -17
    endloop
  endfacet
  facet normal 0 0 -1
    outer loop
      vertex -10.7104 12.3429 -17
      vertex -2.36915 2.22478 -17
      vertex -2.6293 1.9103 -17
    endloop
  endfacet
  facet normal 0 0 -1
    outer loop
      vertex -14.0747 9.18364 -17
      vertex -2.6293 1.9103 -17
      vertex -2.848 1.5657 -17
    endloop
  endfacet
  facet normal 0 0 -1
    outer loop
      vertex -14.0747 9.18364 -17
      vertex -2.848 1.5657 -17
      vertex -3.02177 1.1964 -17
    endloop
  endfacet
  facet normal 0 -0 -1
    outer loop
      vertex -5.29573 19.7956 -17
      vertex 5.29573 19.7956 -17
      vertex -7.76863 15.8989 -17
    endloop
  endfacet
  facet normal 0 0 -1
    outer loop
      vertex -14.0747 9.18364 -17
      vertex -3.02177 1.1964 -17
      vertex -3.14789 0.808242 -17
    endloop
  endfacet
  facet normal 0 0 -1
    outer loop
      vertex -14.0747 9.18364 -17
      vertex -3.14789 0.808242 -17
      vertex -3.22437 0.407332 -17
    endloop
  endfacet
  facet normal 0 0 -1
    outer loop
      vertex -17.8084 6.47095 -17
      vertex -3.22437 0.407332 -17
      vertex -3.25 0 -17
    endloop
  endfacet
  facet normal -0 0 -1
    outer loop
      vertex -2.848 -1.5657 -17
      vertex -14.0747 -9.18364 -17
      vertex -3.02177 -1.1964 -17
    endloop
  endfacet
  facet normal -0 0 -1
    outer loop
      vertex -3.02177 -1.1964 -17
      vertex -14.0747 -9.18364 -17
      vertex -3.14789 -0.808242 -17
    endloop
  endfacet
  facet normal -0 0 -1
    outer loop
      vertex 4.26304 21.9901 -17
      vertex -5.29573 19.7956 -17
      vertex -4.26304 21.9901 -17
    endloop
  endfacet
  facet normal -0 0 -1
    outer loop
      vertex -3.14789 -0.808242 -17
      vertex -14.0747 -9.18364 -17
      vertex -3.22437 -0.407332 -17
    endloop
  endfacet
  facet normal 0 0 -1
    outer loop
      vertex 5.29573 19.7956 -17
      vertex -5.29573 19.7956 -17
      vertex 4.26304 21.9901 -17
    endloop
  endfacet
  facet normal 0 0 -1
    outer loop
      vertex -17.8084 -6.47095 -17
      vertex -3.22437 -0.407332 -17
      vertex -14.0747 -9.18364 -17
    endloop
  endfacet
  facet normal 0 0 -1
    outer loop
      vertex -1.38378 2.94069 -17
      vertex -10.7104 12.3429 -17
      vertex -7.76863 15.8989 -17
    endloop
  endfacet
  facet normal -0 0 -1
    outer loop
      vertex -3.22437 -0.407332 -17
      vertex -17.8084 -6.47095 -17
      vertex -3.25 0 -17
    endloop
  endfacet
  facet normal 0 0 -1
    outer loop
      vertex -2.6293 1.9103 -17
      vertex -14.0747 9.18364 -17
      vertex -10.7104 12.3429 -17
    endloop
  endfacet
  facet normal 0 0 -1
    outer loop
      vertex -17.8084 6.47095 -17
      vertex -3.25 0 -17
      vertex -17.8084 -6.47095 -17
    endloop
  endfacet
  facet normal 0 0 -1
    outer loop
      vertex -3.22437 0.407332 -17
      vertex -17.8084 6.47095 -17
      vertex -14.0747 9.18364 -17
    endloop
  endfacet
  facet normal 0 0 -1
    outer loop
      vertex -21.8526 -4.24761 -17
      vertex -17.8084 6.47095 -17
      vertex -17.8084 -6.47095 -17
    endloop
  endfacet
  facet normal 0 0 -1
    outer loop
      vertex -21.8526 -4.24761 -17
      vertex -21.8526 4.24761 -17
      vertex -17.8084 6.47095 -17
    endloop
  endfacet
  facet normal 0 0 -1
    outer loop
      vertex -22 -4.18925 -17
      vertex -21.8526 4.24761 -17
      vertex -21.8526 -4.24761 -17
    endloop
  endfacet
  facet normal 0 0 -1
    outer loop
      vertex -21.8526 4.24761 -17
      vertex -22 -4.18925 -17
      vertex -22 4.18925 -17
    endloop
  endfacet
endsolid OpenSCAD_Model
